<svg width="35" height="34" viewBox="0 0 35 34" fill="none" xmlns="http://www.w3.org/2000/svg">
<g clip-path="url(#clip0_122_118)">
<path d="M17.5 33.5C27.165 33.5 35 26.1127 35 17C35 7.8873 27.165 0.5 17.5 0.5C7.83502 0.5 0 7.8873 0 17C0 26.1127 7.83502 33.5 17.5 33.5Z" fill="#0D1E30"/>
<g filter="url(#filter0_d_122_118)">
<path d="M17.1992 6.74931C17.7231 6.49459 18.363 7.08344 18.0852 7.56916C17.9222 7.96516 17.3086 8.07034 16.9958 7.76819C16.6644 7.47944 16.7727 6.90606 17.1992 6.74828V6.74931ZM11.5609 7.31237C11.8792 7.19069 12.2828 7.46087 12.25 7.78366C12.2828 8.13222 11.8234 8.39003 11.4986 8.224C11.0688 8.06931 11.118 7.42169 11.5609 7.31237ZM23.1088 8.23328C22.6111 8.17759 22.5323 7.45159 23.0103 7.30516C23.3822 7.13809 23.7234 7.45262 23.7781 7.77953C23.6994 8.05797 23.4478 8.31372 23.1088 8.23328ZM12.8439 9.53781C13.3766 9.22534 14.1356 9.69044 14.0536 10.2648C14.0263 10.8434 13.1972 11.1796 12.7291 10.7877C12.2763 10.4804 12.3452 9.775 12.8439 9.53781ZM20.9705 9.86987C21.2078 9.30269 22.1703 9.28412 22.4405 9.83687C22.7084 10.2669 22.3792 10.8001 21.9034 10.9465C21.2723 11.0558 20.6741 10.4226 20.9705 9.86987ZM16.52 10.9145C16.5145 10.4257 16.9936 10.0627 17.4934 10.0287C17.8259 10.0906 18.1869 10.2215 18.3291 10.5319C18.5948 10.9609 18.3586 11.5498 17.8806 11.7467C17.6619 11.8602 17.4016 11.8179 17.1631 11.8045C16.7989 11.6395 16.4916 11.3126 16.52 10.9145ZM8.13531 11.6261C8.62203 11.3477 9.27828 11.853 9.09344 12.3438C8.99281 12.7677 8.37813 12.9399 8.02703 12.6697C7.65188 12.416 7.71094 11.8066 8.13641 11.6251L8.13531 11.6261ZM26.1406 11.624C26.553 11.327 27.2344 11.6684 27.1841 12.151C27.2125 12.5913 26.623 12.9244 26.2139 12.6976C25.7633 12.5088 25.7162 11.8653 26.1406 11.6251V11.624ZM18.8781 12.5016C19.5584 12.2747 20.3678 12.546 20.755 13.1101C21.2669 13.7979 20.9956 14.8457 20.2005 15.2406C19.378 15.7078 18.1759 15.3128 17.8708 14.4589C17.5263 13.6958 18.0294 12.7409 18.877 12.5016H18.8781ZM14.8827 12.5769C15.6373 12.2469 16.6534 12.5233 17.0177 13.239C17.4464 13.9361 17.115 14.9065 16.3483 15.2664C15.5805 15.6717 14.4966 15.3644 14.1258 14.6167C13.7091 13.8928 14.0788 12.91 14.8827 12.5769ZM10.8828 13.8443C10.9408 13.3937 11.3991 13.0997 11.8617 13.0688C12.103 13.0928 12.3285 13.1933 12.5014 13.3539C12.6742 13.5144 12.7842 13.7255 12.8133 13.9526C12.7805 14.4167 12.3944 14.8683 11.865 14.8663C11.282 14.9127 10.7713 14.3744 10.8828 13.8443ZM22.6975 13.1678C23.2958 12.845 24.1259 13.3142 24.0997 13.9516C24.1402 14.627 23.2214 15.1024 22.6264 14.7064C22.0073 14.3764 22.0555 13.4483 22.6975 13.1678ZM13.2584 15.5469C13.9563 15.3685 14.7569 15.6737 15.0992 16.2698C15.4744 16.87 15.3213 17.7032 14.7383 18.1446C13.9891 18.7902 12.6098 18.5303 12.2117 17.6496C11.7534 16.8422 12.3102 15.7593 13.2573 15.5459L13.2584 15.5469ZM20.8348 15.5438C21.5141 15.3633 22.3125 15.6057 22.6778 16.1801C23.1612 16.837 22.9305 17.8177 22.2119 18.2405C21.4572 18.7324 20.2913 18.4746 19.8756 17.7053C19.3725 16.9102 19.8789 15.7862 20.8348 15.5438ZM8.75985 16.2925C9.3636 16.0811 10.033 16.6988 9.78797 17.2547C9.63922 17.76 8.87031 17.9477 8.47328 17.5743C8.00844 17.2237 8.18016 16.4451 8.75985 16.2925ZM25.1322 17.0989C25.1208 16.8719 25.205 16.6499 25.3664 16.4811C25.5278 16.3123 25.7534 16.2104 25.9941 16.1976C26.4075 16.2595 26.81 16.5689 26.7772 16.9865C26.8155 17.5382 26.0991 17.9126 25.5916 17.6537C25.3542 17.5413 25.2328 17.3155 25.1322 17.0989ZM5.79031 16.5668C6.15344 16.4193 6.60297 16.7112 6.51985 17.0855C6.50016 17.5094 5.82531 17.6733 5.57813 17.3186C5.35938 17.0721 5.49063 16.6937 5.79031 16.5658V16.5668ZM28.7033 16.5575C28.9592 16.3894 29.3705 16.5101 29.4711 16.7875C29.6428 17.0907 29.3278 17.5052 28.9603 17.4547C28.4441 17.498 28.2778 16.7689 28.7033 16.5575ZM15.2316 18.5922C16.1875 18.3622 17.2156 19.1016 17.2222 20.0153C17.2834 20.9383 16.2706 21.7561 15.2928 21.5436C14.5359 21.4302 13.942 20.7537 13.9672 20.0452C13.965 19.3667 14.5163 18.7355 15.2316 18.5922ZM19.0181 18.5912C19.9883 18.3395 21.047 19.0923 21.0317 20.0267C21.0831 20.9321 20.102 21.7231 19.1439 21.5426C18.2416 21.4353 17.5766 20.5165 17.8281 19.7039C17.955 19.1635 18.4428 18.7242 19.0181 18.5901V18.5912ZM11.7163 19.1532C12.3878 19.047 13.0178 19.741 12.7455 20.3329C12.5464 20.9641 11.5577 21.1342 11.1202 20.6196C10.6083 20.1246 10.9911 19.2212 11.7163 19.1532ZM22.8222 19.181C23.4216 18.948 24.1566 19.4285 24.1106 20.0318C24.1347 20.6949 23.2269 21.1528 22.6417 20.765C21.9778 20.4175 22.0992 19.3935 22.8222 19.181ZM25.9263 22.0685C25.6922 21.6632 26.1177 21.126 26.6044 21.2012C26.845 21.1971 27.0145 21.3735 27.1688 21.522C27.2005 21.7622 27.2541 22.0489 27.0386 22.2335C26.7466 22.5769 26.0848 22.479 25.9263 22.0685ZM8.13313 21.3137C8.58703 21.0342 9.24 21.4518 9.13719 21.9427C9.0825 22.3789 8.49188 22.6275 8.1036 22.38C7.68578 22.1562 7.7011 21.5178 8.13313 21.3137ZM17.0942 22.2242C17.6881 21.9819 18.445 22.4614 18.3881 23.0678C18.4319 23.7381 17.4967 24.2022 16.9159 23.8C16.2706 23.4545 16.3789 22.4377 17.0942 22.2242ZM12.9445 23.1225C13.4498 22.876 14.128 23.3019 14.082 23.8278C14.0973 24.2589 13.6445 24.626 13.1852 24.5621C12.8056 24.5549 12.5584 24.2383 12.4359 23.9382C12.4425 23.6113 12.588 23.2472 12.9445 23.1235V23.1225ZM21.3511 23.1307C21.8717 22.8317 22.6111 23.2607 22.5619 23.8217C22.575 24.4095 21.7394 24.7848 21.2548 24.3992C20.7867 24.097 20.8436 23.371 21.3511 23.1307ZM22.8134 26.4823C22.5816 26.1585 22.8539 25.7676 23.2291 25.6934C23.532 25.7501 23.8525 25.9615 23.788 26.2853C23.7442 26.7257 23.0508 26.8597 22.8134 26.4833V26.4823ZM11.2077 26.2008C11.2995 25.9429 11.5227 25.6882 11.8497 25.7552C12.3255 25.7862 12.4666 26.4524 12.0498 26.6576C11.6758 26.8917 11.2405 26.571 11.2077 26.2008ZM16.8077 26.4967C16.8984 26.1152 17.4289 25.9306 17.7789 26.1327C18.0108 26.2255 18.0786 26.4648 18.1377 26.6689C18.1064 26.775 18.0773 26.8816 18.0502 26.9886C17.9069 27.1454 17.722 27.3032 17.4836 27.298C17.0406 27.3465 16.6403 26.8814 16.8066 26.4967H16.8077Z" fill="black"/>
</g>
<path d="M17.1992 6.74931C17.7231 6.49459 18.363 7.08344 18.0852 7.56916C17.9222 7.96516 17.3086 8.07034 16.9958 7.76819C16.6644 7.47944 16.7727 6.90606 17.1992 6.74828V6.74931ZM11.5609 7.31237C11.8792 7.19069 12.2828 7.46087 12.25 7.78366C12.2828 8.13222 11.8234 8.39003 11.4986 8.224C11.0688 8.06931 11.118 7.42169 11.5609 7.31237ZM23.1088 8.23328C22.6111 8.17759 22.5323 7.45159 23.0103 7.30516C23.3822 7.13809 23.7234 7.45262 23.7781 7.77953C23.6994 8.05797 23.4478 8.31372 23.1088 8.23328ZM12.8439 9.53781C13.3766 9.22534 14.1356 9.69044 14.0536 10.2648C14.0263 10.8434 13.1972 11.1796 12.7291 10.7877C12.2763 10.4804 12.3452 9.775 12.8439 9.53781ZM20.9705 9.86987C21.2078 9.30269 22.1703 9.28412 22.4405 9.83687C22.7084 10.2669 22.3792 10.8001 21.9034 10.9465C21.2723 11.0558 20.6741 10.4226 20.9705 9.86987ZM16.52 10.9145C16.5145 10.4257 16.9936 10.0627 17.4934 10.0287C17.8259 10.0906 18.1869 10.2215 18.3291 10.5319C18.5948 10.9609 18.3586 11.5498 17.8806 11.7467C17.6619 11.8602 17.4016 11.8179 17.1631 11.8045C16.7989 11.6395 16.4916 11.3126 16.52 10.9145ZM8.13531 11.6261C8.62203 11.3477 9.27828 11.853 9.09344 12.3438C8.99281 12.7677 8.37813 12.9399 8.02703 12.6697C7.65188 12.416 7.71094 11.8066 8.13641 11.6251L8.13531 11.6261ZM26.1406 11.624C26.553 11.327 27.2344 11.6684 27.1841 12.151C27.2125 12.5913 26.623 12.9244 26.2139 12.6976C25.7633 12.5088 25.7162 11.8653 26.1406 11.6251V11.624ZM18.8781 12.5016C19.5584 12.2747 20.3678 12.546 20.755 13.1101C21.2669 13.7979 20.9956 14.8457 20.2005 15.2406C19.378 15.7078 18.1759 15.3128 17.8708 14.4589C17.5263 13.6958 18.0294 12.7409 18.877 12.5016H18.8781ZM14.8827 12.5769C15.6373 12.2469 16.6534 12.5233 17.0177 13.239C17.4464 13.9361 17.115 14.9065 16.3483 15.2664C15.5805 15.6717 14.4966 15.3644 14.1258 14.6167C13.7091 13.8928 14.0788 12.91 14.8827 12.5769ZM10.8828 13.8443C10.9408 13.3937 11.3991 13.0997 11.8617 13.0688C12.103 13.0928 12.3285 13.1933 12.5014 13.3539C12.6742 13.5144 12.7842 13.7255 12.8133 13.9526C12.7805 14.4167 12.3944 14.8683 11.865 14.8663C11.282 14.9127 10.7713 14.3744 10.8828 13.8443ZM22.6975 13.1678C23.2958 12.845 24.1259 13.3142 24.0997 13.9516C24.1402 14.627 23.2214 15.1024 22.6264 14.7064C22.0073 14.3764 22.0555 13.4483 22.6975 13.1678ZM13.2584 15.5469C13.9563 15.3685 14.7569 15.6737 15.0992 16.2698C15.4744 16.87 15.3213 17.7032 14.7383 18.1446C13.9891 18.7902 12.6098 18.5303 12.2117 17.6496C11.7534 16.8422 12.3102 15.7593 13.2573 15.5459L13.2584 15.5469ZM20.8348 15.5438C21.5141 15.3633 22.3125 15.6057 22.6778 16.1801C23.1612 16.837 22.9305 17.8177 22.2119 18.2405C21.4572 18.7324 20.2913 18.4746 19.8756 17.7053C19.3725 16.9102 19.8789 15.7862 20.8348 15.5438ZM8.75985 16.2925C9.3636 16.0811 10.033 16.6988 9.78797 17.2547C9.63922 17.76 8.87031 17.9477 8.47328 17.5743C8.00844 17.2237 8.18016 16.4451 8.75985 16.2925ZM25.1322 17.0989C25.1208 16.8719 25.205 16.6499 25.3664 16.4811C25.5278 16.3123 25.7534 16.2104 25.9941 16.1976C26.4075 16.2595 26.81 16.5689 26.7772 16.9865C26.8155 17.5382 26.0991 17.9126 25.5916 17.6537C25.3542 17.5413 25.2328 17.3155 25.1322 17.0989ZM5.79031 16.5668C6.15344 16.4193 6.60297 16.7112 6.51985 17.0855C6.50016 17.5094 5.82531 17.6733 5.57813 17.3186C5.35938 17.0721 5.49063 16.6937 5.79031 16.5658V16.5668ZM28.7033 16.5575C28.9592 16.3894 29.3705 16.5101 29.4711 16.7875C29.6428 17.0907 29.3278 17.5052 28.9603 17.4547C28.4441 17.498 28.2778 16.7689 28.7033 16.5575ZM15.2316 18.5922C16.1875 18.3622 17.2156 19.1016 17.2222 20.0153C17.2834 20.9383 16.2706 21.7561 15.2928 21.5436C14.5359 21.4302 13.942 20.7537 13.9672 20.0452C13.965 19.3667 14.5163 18.7355 15.2316 18.5922ZM19.0181 18.5912C19.9883 18.3395 21.047 19.0923 21.0317 20.0267C21.0831 20.9321 20.102 21.7231 19.1439 21.5426C18.2416 21.4353 17.5766 20.5165 17.8281 19.7039C17.955 19.1635 18.4428 18.7242 19.0181 18.5901V18.5912ZM11.7163 19.1532C12.3878 19.047 13.0178 19.741 12.7455 20.3329C12.5464 20.9641 11.5577 21.1342 11.1202 20.6196C10.6083 20.1246 10.9911 19.2212 11.7163 19.1532ZM22.8222 19.181C23.4216 18.948 24.1566 19.4285 24.1106 20.0318C24.1347 20.6949 23.2269 21.1528 22.6417 20.765C21.9778 20.4175 22.0992 19.3935 22.8222 19.181ZM25.9263 22.0685C25.6922 21.6632 26.1177 21.126 26.6044 21.2012C26.845 21.1971 27.0145 21.3735 27.1688 21.522C27.2005 21.7622 27.2541 22.0489 27.0386 22.2335C26.7466 22.5769 26.0848 22.479 25.9263 22.0685ZM8.13313 21.3137C8.58703 21.0342 9.24 21.4518 9.13719 21.9427C9.0825 22.3789 8.49188 22.6275 8.1036 22.38C7.68578 22.1562 7.7011 21.5178 8.13313 21.3137ZM17.0942 22.2242C17.6881 21.9819 18.445 22.4614 18.3881 23.0678C18.4319 23.7381 17.4967 24.2022 16.9159 23.8C16.2706 23.4545 16.3789 22.4377 17.0942 22.2242ZM12.9445 23.1225C13.4498 22.876 14.128 23.3019 14.082 23.8278C14.0973 24.2589 13.6445 24.626 13.1852 24.5621C12.8056 24.5549 12.5584 24.2383 12.4359 23.9382C12.4425 23.6113 12.588 23.2472 12.9445 23.1235V23.1225ZM21.3511 23.1307C21.8717 22.8317 22.6111 23.2607 22.5619 23.8217C22.575 24.4095 21.7394 24.7848 21.2548 24.3992C20.7867 24.097 20.8436 23.371 21.3511 23.1307ZM22.8134 26.4823C22.5816 26.1585 22.8539 25.7676 23.2291 25.6934C23.532 25.7501 23.8525 25.9615 23.788 26.2853C23.7442 26.7257 23.0508 26.8597 22.8134 26.4833V26.4823ZM11.2077 26.2008C11.2995 25.9429 11.5227 25.6882 11.8497 25.7552C12.3255 25.7862 12.4666 26.4524 12.0498 26.6576C11.6758 26.8917 11.2405 26.571 11.2077 26.2008ZM16.8077 26.4967C16.8984 26.1152 17.4289 25.9306 17.7789 26.1327C18.0108 26.2255 18.0786 26.4648 18.1377 26.6689C18.1064 26.775 18.0773 26.8816 18.0502 26.9886C17.9069 27.1454 17.722 27.3032 17.4836 27.298C17.0406 27.3465 16.6403 26.8814 16.8066 26.4967H16.8077Z" fill="white"/>
</g>
<defs>
<filter id="filter0_d_122_118" x="4.46924" y="6.18787" width="26.05" height="22.6136" filterUnits="userSpaceOnUse" color-interpolation-filters="sRGB">
<feFlood flood-opacity="0" result="BackgroundImageFix"/>
<feColorMatrix in="SourceAlpha" type="matrix" values="0 0 0 0 0 0 0 0 0 0 0 0 0 0 0 0 0 0 127 0" result="hardAlpha"/>
<feOffset dy="0.5"/>
<feGaussianBlur stdDeviation="0.5"/>
<feColorMatrix type="matrix" values="0 0 0 0 0 0 0 0 0 0 0 0 0 0 0 0 0 0 0.204257 0"/>
<feBlend mode="normal" in2="BackgroundImageFix" result="effect1_dropShadow_122_118"/>
<feBlend mode="normal" in="SourceGraphic" in2="effect1_dropShadow_122_118" result="shape"/>
</filter>
<clipPath id="clip0_122_118">
<rect width="35" height="33" fill="white" transform="translate(0 0.5)"/>
</clipPath>
</defs>
</svg>
