<svg width="34" height="36" viewBox="0 0 34 36" fill="none" xmlns="http://www.w3.org/2000/svg">
<g clip-path="url(#clip0_122_104)">
<path d="M17 35.5C26.3888 35.5 34 27.665 34 18C34 8.33502 26.3888 0.5 17 0.5C7.61116 0.5 0 8.33502 0 18C0 27.665 7.61116 35.5 17 35.5Z" fill="#F3BA2F"/>
<path d="M12.8733 16.2544L17 12.0063L21.1289 16.2566L23.5301 13.7847L17 7.0625L10.472 13.7825L12.8733 16.2544ZM6.375 18L8.77625 15.5281L11.1775 18L8.77625 20.4719L6.375 18ZM12.8733 19.7456L17 23.9937L21.1289 19.7434L23.5301 22.2142L17 28.9375L10.472 22.2175L10.4688 22.2142L12.8733 19.7456ZM22.8225 18L25.2237 15.5281L27.625 18L25.2237 20.4719L22.8225 18ZM19.4352 17.9978H19.4374V18L17 20.5091L14.5658 18.0044L14.5616 18L14.5658 17.9967L14.9919 17.557L15.1991 17.3438L17 15.4909L19.4363 17.9989L19.4352 17.9978Z" fill="white"/>
</g>
<defs>
<clipPath id="clip0_122_104">
<rect width="34" height="35" fill="white" transform="translate(0 0.5)"/>
</clipPath>
</defs>
</svg>
