<svg width="35" height="36" viewBox="0 0 35 36" fill="none" xmlns="http://www.w3.org/2000/svg">
<g clip-path="url(#clip0_119_14706)">
<path d="M34.9999 18C34.9999 21.4612 33.9736 24.8446 32.0507 27.7225C30.1277 30.6003 27.3946 32.8434 24.1969 34.1679C20.9992 35.4924 17.4805 35.839 14.0859 35.1637C10.6912 34.4885 7.573 32.8218 5.12558 30.3744C2.67816 27.927 1.01145 24.8087 0.336204 21.4141C-0.339037 18.0194 0.00752137 14.5007 1.33205 11.303C2.65659 8.10533 4.89961 5.37221 7.77747 3.44928C10.6553 1.52636 14.0388 0.5 17.4999 0.5C22.1412 0.5 26.5924 2.34374 29.8743 5.62563C33.1562 8.90752 34.9999 13.3587 34.9999 18Z" fill="#F7931A"/>
<path fill-rule="evenodd" clip-rule="evenodd" d="M12.4377 8.49114L16.4596 9.56818L17.3584 6.21773L19.3693 6.76341L18.5055 9.97546L20.1457 10.4161L21.0112 7.16909L23.0571 7.71636L22.1757 10.9809C22.1757 10.9809 25.5166 11.7207 26.3025 14.438C27.0884 17.1552 24.5748 18.5823 23.7984 18.6364C23.7984 18.6364 26.7257 20.2416 25.7202 23.3995C24.7148 26.5575 21.6284 27.1223 18.3814 26.3984L17.5 29.7839L15.4541 29.2366L16.353 25.9036L14.7302 25.4614L13.8314 28.8182L11.8014 28.2725L12.7018 24.9316L8.57343 23.818L9.61388 21.508C9.61388 21.508 10.7784 21.8261 11.2191 21.9311C11.6598 22.0361 11.943 21.578 12.0671 21.1198C12.1912 20.6616 14.0605 13.0682 14.2371 12.443C14.4137 11.8177 14.3421 11.3293 13.6007 11.1368C12.8593 10.9443 11.8507 10.6436 11.8507 10.6436L12.4377 8.49114ZM16.4946 18.5473L15.3809 22.9748C15.3809 22.9748 20.903 24.9682 21.6093 22.1634C22.3157 19.3586 16.4946 18.5473 16.4946 18.5473ZM17.0068 16.4473L18.0998 12.3905C18.0998 12.3905 22.828 13.2368 22.2457 15.4943C21.6634 17.7518 18.8762 16.8864 17.0068 16.4473Z" fill="white"/>
</g>
<defs>
<clipPath id="clip0_119_14706">
<rect width="35" height="35" fill="white" transform="translate(0 0.5)"/>
</clipPath>
</defs>
</svg>
