<svg width="34" height="34" viewBox="0 0 34 34" fill="none" xmlns="http://www.w3.org/2000/svg">
<g clip-path="url(#clip0_122_123)">
<path d="M17 33.5C26.3888 33.5 34 26.1127 34 17C34 7.8873 26.3888 0.5 17 0.5C7.61116 0.5 0 7.8873 0 17C0 26.1127 7.61116 33.5 17 33.5Z" fill="#C3A634"/>
<path fill-rule="evenodd" clip-rule="evenodd" d="M14.076 15.5666H18.6596V17.924H14.076V22.8926H16.9671C18.1114 22.8926 19.0474 22.743 19.7763 22.4419C20.5052 22.1418 21.0768 21.7262 21.4923 21.1941C21.9172 20.6407 22.2064 20.0006 22.338 19.3224C22.4915 18.5573 22.5662 17.7794 22.5611 17C22.5662 16.2206 22.4915 15.4427 22.338 14.6776C22.2065 13.9994 21.9173 13.3592 21.4923 12.8059C21.0768 12.2738 20.5041 11.8582 19.7763 11.5581C19.0474 11.257 18.1114 11.1074 16.9671 11.1074H14.076V15.5676V15.5666ZM11.1371 17.924H9.5625V15.5676H11.1371V8.75H18.0954C19.3811 8.75 20.4935 8.96656 21.4338 9.39659C22.3741 9.82869 23.1412 10.4175 23.7373 11.1652C24.3323 11.9118 24.7754 12.7863 25.0654 13.7877C25.3555 14.789 25.5 15.8605 25.5 17C25.5073 18.0851 25.3607 19.166 25.0644 20.2123C24.7754 21.2127 24.3323 22.0882 23.7362 22.8348C23.1413 23.5825 22.3741 24.1713 21.4338 24.6034C20.4935 25.0345 19.38 25.25 18.0954 25.25H11.1371V17.924Z" fill="white"/>
</g>
<defs>
<clipPath id="clip0_122_123">
<rect width="34" height="33" fill="white" transform="translate(0 0.5)"/>
</clipPath>
</defs>
</svg>
