<svg width="34" height="34" viewBox="0 0 34 34" fill="none" xmlns="http://www.w3.org/2000/svg">
<g clip-path="url(#clip0_122_66)">
<path fill-rule="evenodd" clip-rule="evenodd" d="M16.9335 0C20.2958 0 23.5826 0.997033 26.3782 2.86502C29.1739 4.733 31.3528 7.38804 32.6395 10.4944C33.9262 13.6007 34.2628 17.0189 33.6069 20.3165C32.9509 23.6142 31.3318 26.6433 28.9543 29.0208C26.5769 31.3983 23.5477 33.0174 20.2501 33.6734C16.9524 34.3293 13.5343 33.9926 10.4279 32.706C7.32157 31.4193 4.66653 29.2403 2.79855 26.4447C0.930565 23.6491 -0.0664673 20.3623 -0.0664673 17C-0.0664673 12.4913 1.7246 8.1673 4.91272 4.97918C8.10084 1.79107 12.4249 0 16.9335 0V0Z" fill="white"/>
<path fill-rule="evenodd" clip-rule="evenodd" d="M16.9336 3.65036L21.4061 10.3329L25.8786 17.017L16.9336 21.5235L7.98846 17L12.461 10.3159L16.9336 3.65036ZM16.9336 23.324L8.48456 18.8159L16.9336 30.3496L25.3826 18.8159L16.9336 23.324Z" fill="#343434"/>
<path fill-rule="evenodd" clip-rule="evenodd" d="M16.9335 3.65036L21.4061 10.3159L25.8786 17L16.9335 13.6232V3.65036Z" fill="#343434"/>
<path fill-rule="evenodd" clip-rule="evenodd" d="M16.9335 23.324L25.3995 18.8159L16.9335 30.3666V23.324Z" fill="#313131"/>
<path fill-rule="evenodd" clip-rule="evenodd" d="M16.9335 13.6232L25.8786 17L16.9335 21.5065V13.6232Z" fill="#151515"/>
<path fill-rule="evenodd" clip-rule="evenodd" d="M16.9336 3.65036L12.461 10.3159L7.98846 17L16.9336 13.6232V3.65036Z" fill="#8C8C8C"/>
<path fill-rule="evenodd" clip-rule="evenodd" d="M16.9336 23.324L8.48456 18.8159L16.9336 30.3666V23.324Z" fill="#8A8A8A"/>
<path fill-rule="evenodd" clip-rule="evenodd" d="M16.9336 13.6232L7.98846 17L16.9336 21.5065V13.6232Z" fill="#353535"/>
</g>
<defs>
<clipPath id="clip0_122_66">
<rect width="34" height="34" fill="white"/>
</clipPath>
</defs>
</svg>
