<svg width="34" height="34" viewBox="0 0 34 34" fill="none" xmlns="http://www.w3.org/2000/svg">
<g clip-path="url(#clip0_122_131)">
<path d="M17 33.5C26.389 33.5 34 26.1128 34 17C34 7.88719 26.389 0.5 17 0.5C7.61104 0.5 0 7.88719 0 17C0 26.1128 7.61104 33.5 17 33.5Z" fill="#2B6DEF"/>
<path fill-rule="evenodd" clip-rule="evenodd" d="M24.084 8.75L20.5466 10.7297H20.5431V14.6893L20.5307 14.691L9.91702 8.75L6.37677 10.73L6.375 10.7293V23.0397L9.9149 25.0207L9.91702 25.0049V25.0197L13.4583 23.0397V18.6534L16.9922 20.63L16.9943 20.6341L16.9972 20.6324L20.5438 18.662V23.0414L24.0688 25.0132V25.0235L24.0777 25.0183L24.084 25.0218L24.089 25.0121L27.6094 23.0435V10.7403L27.6254 10.7314L24.084 8.75Z" fill="white"/>
</g>
<defs>
<clipPath id="clip0_122_131">
<rect width="34" height="33" fill="white" transform="translate(0 0.5)"/>
</clipPath>
</defs>
</svg>
