<svg width="34" height="34" viewBox="0 0 34 34" fill="none" xmlns="http://www.w3.org/2000/svg">
<circle cx="17" cy="17" r="17" fill="black"/>
<path fill-rule="evenodd" clip-rule="evenodd" d="M24.1849 11.388C24.0759 11.4362 23.9582 11.4612 23.8393 11.4613H6.10144C6.01684 11.4612 5.93409 11.4362 5.86332 11.3892C5.79255 11.3422 5.73684 11.2754 5.703 11.1968C5.66916 11.1182 5.65867 11.0314 5.6728 10.9468C5.68694 10.8623 5.72509 10.7838 5.78258 10.7209L9.52021 6.6554C9.60114 6.56709 9.69915 6.49663 9.80815 6.4484C9.91713 6.40018 10.0348 6.37522 10.1537 6.37509H27.8916C27.9769 6.37331 28.0609 6.39715 28.1329 6.44362C28.2049 6.49009 28.262 6.55711 28.2964 6.63625C28.331 6.71539 28.3416 6.80311 28.327 6.88838C28.3124 6.97365 28.2734 7.05265 28.2147 7.11545L24.4728 11.181C24.3919 11.2693 24.2939 11.3397 24.1849 11.388ZM24.4728 14.382C24.3916 14.2941 24.2935 14.2239 24.1846 14.1757C24.0756 14.1275 23.9582 14.1024 23.8393 14.1017H6.10144C6.01684 14.1018 5.93409 14.1268 5.86332 14.1738C5.79255 14.2208 5.73684 14.2876 5.703 14.3662C5.66916 14.4448 5.65867 14.5316 5.6728 14.6162C5.68694 14.7007 5.72509 14.7792 5.78258 14.8421L9.5202 18.9097C9.60144 18.9977 9.69953 19.0678 9.80844 19.116C9.91736 19.1642 10.0349 19.1894 10.1537 19.19H27.8916C27.976 19.1896 28.0584 19.1642 28.1289 19.1171C28.1994 19.07 28.2548 19.0031 28.2883 18.9246C28.3219 18.8461 28.3323 18.7594 28.3179 18.6751C28.3038 18.5908 28.2658 18.5124 28.2083 18.4497L24.4728 14.382ZM28.2147 22.5708L24.4728 26.6364C24.3919 26.7247 24.2939 26.7952 24.1849 26.8434C24.0759 26.8916 23.9582 26.9166 23.8393 26.9167H6.10144C6.01684 26.9166 5.93409 26.8916 5.86332 26.8446C5.79255 26.7976 5.73684 26.7308 5.703 26.6522C5.66916 26.5736 5.65867 26.4868 5.6728 26.4023C5.68694 26.3177 5.72509 26.2392 5.78258 26.1763L9.52021 22.1108C9.60114 22.0225 9.69915 21.952 9.80815 21.9038C9.91713 21.8556 10.0348 21.8306 10.1537 21.8305H27.8916C27.9769 21.8287 28.0609 21.8525 28.1329 21.899C28.2049 21.9455 28.262 22.0125 28.2964 22.0916C28.331 22.1708 28.3416 22.2585 28.327 22.3438C28.3124 22.4291 28.2734 22.5081 28.2147 22.5708Z" fill="url(#paint0_linear_122_140)"/>
<defs>
<linearGradient id="paint0_linear_122_140" x1="19.3025" y1="35.8346" x2="35.7106" y2="13.0114" gradientUnits="userSpaceOnUse">
<stop offset="0.08" stop-color="#9945FF"/>
<stop offset="0.3" stop-color="#8752F3"/>
<stop offset="0.5" stop-color="#5497D5"/>
<stop offset="0.6" stop-color="#43B4CA"/>
<stop offset="0.72" stop-color="#28E0B9"/>
<stop offset="0.97" stop-color="#19FB9B"/>
</linearGradient>
</defs>
</svg>
