<svg width="36" height="32" viewBox="0 0 36 32" fill="none" xmlns="http://www.w3.org/2000/svg">
<g clip-path="url(#clip0_122_108)">
<path d="M18 32C21.5601 32 25.0402 31.0616 28.0003 29.3035C30.9603 27.5454 33.2674 25.0466 34.6298 22.1229C35.9922 19.1993 36.3487 15.9823 35.6541 12.8786C34.9596 9.77487 33.2453 6.92394 30.7279 4.6863C28.2106 2.44866 25.0033 0.924806 21.5116 0.307443C18.02 -0.309921 14.4008 0.00693248 11.1117 1.21793C7.82262 2.42894 5.01141 4.4797 3.03354 7.11088C1.05568 9.74207 -6.53945e-06 12.8355 -6.53945e-06 16C-0.00583407 18.1026 0.455772 20.1855 1.35829 22.1291C2.26081 24.0726 3.58646 25.8385 5.25908 27.3253C6.93169 28.812 8.91831 29.9904 11.1048 30.7926C13.2913 31.5949 15.6346 32.0052 18 32Z" fill="#2775CA"/>
<path d="M22.95 18.5338C22.95 16.2065 21.3758 15.3993 18.2258 15.0662C15.9742 14.8 15.5258 14.2662 15.5258 13.3338C15.5258 12.4014 16.2753 11.7993 17.7742 11.7993C19.1258 11.7993 19.8753 12.1993 20.25 13.2C20.2903 13.2964 20.3628 13.3795 20.458 13.438C20.5531 13.4966 20.6661 13.5277 20.7818 13.5273H21.9813C22.0508 13.5289 22.1199 13.5179 22.1844 13.495C22.249 13.4721 22.3076 13.4377 22.3567 13.3941C22.4059 13.3504 22.4445 13.2983 22.4702 13.2409C22.496 13.1835 22.5084 13.1221 22.5066 13.0604V12.9949C22.3616 12.2723 21.9523 11.6125 21.3421 11.118C20.732 10.6236 19.9552 10.322 19.1324 10.2604V8.66035C19.1324 8.39417 18.9066 8.1949 18.5318 8.12799H17.406C17.1066 8.12799 16.8824 8.32726 16.8071 8.66035V10.1993C14.5506 10.4727 13.1253 11.7993 13.1253 13.4662C13.1253 15.6669 14.6258 16.5338 17.7758 16.8669C19.8753 17.2 20.5576 17.5942 20.5576 18.6662C20.5576 19.7382 19.5087 20.4669 18.0835 20.4669C16.1329 20.4669 15.4653 19.7396 15.2329 18.7331C15.2115 18.6206 15.1464 18.5184 15.0489 18.4443C14.9514 18.3701 14.8278 18.3287 14.6995 18.3273H13.4182C13.3488 18.3259 13.2798 18.337 13.2153 18.36C13.1509 18.3829 13.0924 18.4173 13.0433 18.4609C12.9942 18.5046 12.9556 18.5566 12.9297 18.6139C12.9039 18.6711 12.8914 18.7325 12.8929 18.7942V18.8611C13.194 20.528 14.3935 21.728 16.8693 22.0611V23.6611C16.8693 23.9273 17.0935 24.128 17.4682 24.1949H18.594C18.8935 24.1949 19.1193 23.9942 19.1929 23.6611V22.0611C21.4429 21.728 22.9435 20.3273 22.9435 18.528L22.95 18.5338Z" fill="white"/>
<path d="M14.1742 25.5331C12.0162 24.8295 10.1532 23.5539 8.83716 21.8788C7.52108 20.2036 6.81535 18.2097 6.81535 16.1665C6.81535 14.1233 7.52108 12.1294 8.83716 10.4543C10.1532 8.77913 12.0162 7.50356 14.1742 6.79998C14.3182 6.74462 14.4391 6.65065 14.5201 6.53121C14.6011 6.41177 14.638 6.27283 14.6258 6.1338V5.19998C14.6359 5.07749 14.5957 4.9559 14.5127 4.85774C14.4296 4.75959 14.3094 4.69152 14.1742 4.66616C14.0686 4.65637 13.9625 4.68007 13.8747 4.73307C11.1443 5.50449 8.76089 7.02822 7.06945 9.08372C5.37801 11.1392 4.46631 13.6198 4.46631 16.1665C4.46631 18.7132 5.37801 21.1938 7.06945 23.2493C8.76089 25.3048 11.1443 26.8286 13.8747 27.6C13.9371 27.6322 14.0071 27.6508 14.0792 27.6543C14.1512 27.6578 14.2231 27.6461 14.289 27.6201C14.3549 27.5941 14.413 27.5546 14.4585 27.5049C14.5039 27.4551 14.5355 27.3965 14.5505 27.3338C14.6258 27.2669 14.6258 27.2 14.6258 27.0662V26.1338C14.6258 25.9331 14.4 25.6669 14.1742 25.5331ZM22.1253 4.73307C22.0628 4.70087 21.9926 4.6823 21.9205 4.67889C21.8484 4.67547 21.7764 4.68732 21.7105 4.71344C21.6445 4.73956 21.5864 4.77922 21.5411 4.82916C21.4957 4.87909 21.4643 4.93789 21.4495 5.00071C21.3758 5.06616 21.3758 5.13307 21.3758 5.26689V6.19925C21.3885 6.3337 21.4356 6.46379 21.5136 6.57952C21.5916 6.69526 21.6984 6.79356 21.8258 6.86689C23.9838 7.57047 25.8468 8.84604 27.1629 10.5212C28.4789 12.1963 29.1847 14.1902 29.1847 16.2334C29.1847 18.2766 28.4789 20.2705 27.1629 21.9457C25.8468 23.6208 23.9838 24.8964 21.8258 25.6C21.682 25.6554 21.5613 25.7494 21.4806 25.8689C21.3999 25.9883 21.3632 26.1273 21.3758 26.2662V27.2C21.3657 27.3223 21.4056 27.4437 21.4883 27.5418C21.5711 27.6399 21.6909 27.7081 21.8258 27.7338C21.9314 27.7436 22.0375 27.7199 22.1253 27.6669C24.8546 26.8848 27.2346 25.3534 28.9229 23.2929C30.6111 21.2324 31.5207 18.749 31.5207 16.2C31.5207 13.6509 30.6111 11.1676 28.9229 9.10707C27.2346 7.04658 24.8546 5.51516 22.1253 4.73307Z" fill="white"/>
</g>
<defs>
<clipPath id="clip0_122_108">
<rect width="36" height="32" fill="white"/>
</clipPath>
</defs>
</svg>
