<svg width="34" height="32" viewBox="0 0 34 32" fill="none" xmlns="http://www.w3.org/2000/svg">
<g clip-path="url(#clip0_122_100)">
<path d="M17 32C26.3888 32 34 24.8366 34 16C34 7.16344 26.3888 0 17 0C7.61116 0 0 7.16344 0 16C0 24.8366 7.61116 32 17 32Z" fill="#26A17B"/>
<path fill-rule="evenodd" clip-rule="evenodd" d="M19.0422 17.3833V17.3813C18.9253 17.3893 18.3228 17.4233 16.9788 17.4233C15.9057 17.4233 15.1502 17.3933 14.8846 17.3813V17.3843C10.7536 17.2133 7.67022 16.5363 7.67022 15.7263C7.67022 14.9173 10.7536 14.2403 14.8846 14.0663V16.7103C15.1545 16.7283 15.928 16.7713 16.9968 16.7713C18.2793 16.7713 18.9221 16.7213 19.0422 16.7113V14.0683C23.1647 14.2413 26.2406 14.9183 26.2406 15.7263C26.2406 16.5363 23.1647 17.2113 19.0422 17.3833ZM19.0422 13.7933V11.4273H24.7945V7.81927H9.13222V11.4273H14.8846V13.7923C10.2096 13.9943 6.69379 14.8663 6.69379 15.9103C6.69379 16.9543 10.2096 17.8253 14.8846 18.0283V25.6103H19.0422V18.0263C23.7097 17.8243 27.217 16.9533 27.217 15.9103C27.217 14.8673 23.7097 13.9963 19.0422 13.7933Z" fill="white"/>
</g>
<defs>
<clipPath id="clip0_122_100">
<rect width="34" height="32" fill="white"/>
</clipPath>
</defs>
</svg>
