<svg width="34" height="34" viewBox="0 0 34 34" fill="none" xmlns="http://www.w3.org/2000/svg">
<g clip-path="url(#clip0_122_114)">
<path d="M17 33.5C26.3888 33.5 34 26.1127 34 17C34 7.8873 26.3888 0.5 17 0.5C7.61116 0.5 0 7.8873 0 17C0 26.1127 7.61116 33.5 17 33.5Z" fill="#23292F"/>
<path d="M24.5119 8.75H27.5825L21.1916 14.8932C20.0742 15.9617 18.5686 16.5606 17 16.5606C15.4314 16.5606 13.9258 15.9617 12.8084 14.8932L6.41219 8.75H9.48813L14.3438 13.4143C15.0508 14.0917 16.0044 14.4715 16.9979 14.4715C17.9914 14.4715 18.9449 14.0917 19.652 13.4143L24.5119 8.75ZM9.45094 25.8306H6.375L12.8084 19.6503C13.9258 18.5818 15.4314 17.9829 17 17.9829C18.5686 17.9829 20.0742 18.5818 21.1916 19.6503L27.625 25.8296H24.5491L19.6562 21.125C18.9492 20.4476 17.9956 20.0678 17.0021 20.0678C16.0086 20.0678 15.0551 20.4476 14.348 21.125L9.44988 25.8306H9.45094Z" fill="white"/>
</g>
<defs>
<clipPath id="clip0_122_114">
<rect width="34" height="33" fill="white" transform="translate(0 0.5)"/>
</clipPath>
</defs>
</svg>
