<?xml version="1.0" encoding="utf-8"?>
<!-- Generator: Adobe Illustrator 27.1.1, SVG Export Plug-In . SVG Version: 6.00 Build 0)  -->
<svg version="1.1" id="Layer_1" xmlns="http://www.w3.org/2000/svg" xmlns:xlink="http://www.w3.org/1999/xlink" x="0px" y="0px"
	 viewBox="0 0 250 100" style="enable-background:new 0 0 250 100;" xml:space="preserve">
<style type="text/css">
	.st0{fill:url(#SVGID_1_);}
	.st1{opacity:0.7;fill:url(#SVGID_00000155837827607378384300000014831928841956711085_);}
	.st2{fill:url(#SVGID_00000181780766975715162010000006748591500679159740_);}
	.st3{opacity:0.7;fill:url(#SVGID_00000181046443841597546150000003941285145886013341_);}
	.st4{fill:url(#SVGID_00000081625065708371761190000005439586118201406852_);}
	.st5{opacity:0.7;fill:url(#SVGID_00000176001900333683325570000016025510475376640931_);}
	.st6{fill:url(#SVGID_00000039842413011906563290000005226330986076160647_);}
	.st7{fill:url(#SVGID_00000051384115717420171370000001785541354873182343_);}
	.st8{fill:url(#SVGID_00000161605342101043229830000012151104464449302170_);}
	.st9{fill:url(#SVGID_00000142162742574003449990000001568125795069099956_);}
	.st10{fill:#2E2E3A;}
</style>
<g>
	<g>
		<linearGradient id="SVGID_1_" gradientUnits="userSpaceOnUse" x1="86.2729" y1="50.577" x2="54.9627" y2="50.577">
			<stop  offset="0" style="stop-color:#2323BC"/>
			<stop  offset="0.9993" style="stop-color:#FF00D0"/>
		</linearGradient>
		<path class="st0" d="M82.4,51.9c-3.2,6-9.6,10.1-16.9,10.1C55,62,46.4,53.4,46.4,42.8c0-1.3,0.1-2.5,0.4-3.7
			c1.7,8.8,9.5,15.5,18.8,15.5c3.6,0,6.9-1,9.8-2.7H82.4z"/>
		
			<linearGradient id="SVGID_00000047750223665902192350000004686133594572261508_" gradientUnits="userSpaceOnUse" x1="68.7505" y1="62.8799" x2="57.7792" y2="55.1217">
			<stop  offset="0" style="stop-color:#000000"/>
			<stop  offset="1" style="stop-color:#FFFFFF"/>
		</linearGradient>
		<path style="opacity:0.7;fill:url(#SVGID_00000047750223665902192350000004686133594572261508_);" d="M69.2,61.6
			c-4.2-1.5-7.7-4.4-10-8.1c-4.1-1.4-7.5-4.2-9.8-7.8c1.4,8,7.7,14.5,16.1,15.7C66.8,61.6,68,61.7,69.2,61.6z"/>
		
			<linearGradient id="SVGID_00000169554380241386685700000009719177983418326403_" gradientUnits="userSpaceOnUse" x1="57.8087" y1="24.4652" x2="57.8087" y2="64.0993">
			<stop  offset="6.610600e-04" style="stop-color:#FF00D0"/>
			<stop  offset="1" style="stop-color:#2323BC"/>
		</linearGradient>
		<path style="fill:url(#SVGID_00000169554380241386685700000009719177983418326403_);" d="M53.8,42.8c0-9.3,6.7-17.1,15.5-18.8
			c-1.2-0.2-2.4-0.4-3.7-0.4c-10.6,0-19.2,8.6-19.2,19.2S55,62,65.5,62c1.3,0,2.5-0.1,3.7-0.4C60.4,59.9,53.8,52.2,53.8,42.8z"/>
		
			<linearGradient id="SVGID_00000101083987746040882180000009868343024595237818_" gradientUnits="userSpaceOnUse" x1="45.8175" y1="45.6494" x2="53.1839" y2="35.3834">
			<stop  offset="0" style="stop-color:#000000"/>
			<stop  offset="1" style="stop-color:#FFFFFF"/>
		</linearGradient>
		<path style="opacity:0.7;fill:url(#SVGID_00000101083987746040882180000009868343024595237818_);" d="M64.1,25.8
			c-8.9,0.8-16.3,7.8-17.3,17c-0.1,1.3-0.1,2.5,0,3.7c1.4-4.5,4.4-8.3,8.3-10.6C56.8,31.5,60,28,64.1,25.8z"/>
		
			<linearGradient id="SVGID_00000070088601587349355980000004633458436162296456_" gradientUnits="userSpaceOnUse" x1="46.3857" y1="35.1163" x2="82.4016" y2="35.1163">
			<stop  offset="0" style="stop-color:#2323BC"/>
			<stop  offset="0.9993" style="stop-color:#FF00D0"/>
		</linearGradient>
		<path style="fill:url(#SVGID_00000070088601587349355980000004633458436162296456_);" d="M82.4,33.8c-3.2-6-9.6-10.1-16.9-10.1
			c-10.6,0-19.2,8.6-19.2,19.2c0,1.3,0.1,2.5,0.4,3.7c1.7-8.8,9.5-15.5,18.8-15.5c3.6,0,6.9,1,9.8,2.7H82.4z"/>
		
			<linearGradient id="SVGID_00000165227996976680631550000004998556652087242906_" gradientUnits="userSpaceOnUse" x1="66.0559" y1="22.812" x2="74.6083" y2="31.1574">
			<stop  offset="0" style="stop-color:#000000"/>
			<stop  offset="1" style="stop-color:#FFFFFF"/>
		</linearGradient>
		<path style="opacity:0.7;fill:url(#SVGID_00000165227996976680631550000004998556652087242906_);" d="M72.5,32.4
			c1,0.4,1.9,0.8,2.8,1.4h4c-2.7-5.1-7.6-9-13.7-10.1C68.8,25.9,71.1,29,72.5,32.4z"/>
		
			<linearGradient id="SVGID_00000031174271385177964670000010447740336528685960_" gradientUnits="userSpaceOnUse" x1="65.5391" y1="28.7254" x2="82.4016" y2="28.7254">
			<stop  offset="6.610600e-04" style="stop-color:#FF00D0"/>
			<stop  offset="1" style="stop-color:#2323BC"/>
		</linearGradient>
		<path style="fill:url(#SVGID_00000031174271385177964670000010447740336528685960_);" d="M75.2,33.7
			C75.3,33.7,75.3,33.7,75.2,33.7l7.2,0c-3.2-6-9.6-10.1-16.9-10.1C70.1,25.8,73.4,29.4,75.2,33.7z"/>
		
			<linearGradient id="SVGID_00000098203500188036622580000007217409946274381958_" gradientUnits="userSpaceOnUse" x1="68.1877" y1="24.6342" x2="74.592" y2="31.6861">
			<stop  offset="0" style="stop-color:#000000"/>
			<stop  offset="0.4899" style="stop-color:#FF71EA"/>
			<stop  offset="1" style="stop-color:#000000"/>
		</linearGradient>
		<path style="fill:url(#SVGID_00000098203500188036622580000007217409946274381958_);" d="M71.5,27.6c-0.5-0.5-1.1-1-1.7-1.5
			c-0.6-0.4-1.2-0.8-1.9-1.1c0,0,0,0,0,0c2.5,1.6,4.6,3.8,6.1,6.2c0,0,0,0,0,0c-0.3-0.7-0.7-1.3-1.1-1.9
			C72.5,28.7,72,28.1,71.5,27.6z"/>
		
			<linearGradient id="SVGID_00000028320489006275777320000004487478082172987029_" gradientUnits="userSpaceOnUse" x1="47.8962" y1="41.8792" x2="52.9333" y2="35.331">
			<stop  offset="0" style="stop-color:#000000"/>
			<stop  offset="0.4899" style="stop-color:#FF71EA"/>
			<stop  offset="1" style="stop-color:#000000"/>
		</linearGradient>
		<path style="fill:url(#SVGID_00000028320489006275777320000004487478082172987029_);" d="M50.2,38.4c-0.4,0.5-0.8,1.1-1.1,1.6
			c-0.3,0.6-0.6,1.2-0.8,1.8l0,0c1.1-2.3,2.7-4.4,4.7-6.1l0,0c-0.6,0.3-1.1,0.8-1.5,1.2C51,37.4,50.6,37.9,50.2,38.4z"/>
		
			<linearGradient id="SVGID_00000051359914383277104880000000490716432804258487_" gradientUnits="userSpaceOnUse" x1="59.1233" y1="56.5375" x2="65.2373" y2="60.5655">
			<stop  offset="0" style="stop-color:#000000"/>
			<stop  offset="0.4899" style="stop-color:#FF71EA"/>
			<stop  offset="1" style="stop-color:#000000"/>
		</linearGradient>
		<path style="fill:url(#SVGID_00000051359914383277104880000000490716432804258487_);" d="M59.1,56.1
			C59.1,56.1,59.1,56.1,59.1,56.1c0.3,0.5,0.7,1,1.2,1.4c0.4,0.4,0.9,0.8,1.4,1.2c0.5,0.4,1,0.7,1.6,1c0.6,0.3,1.1,0.5,1.7,0.7l0,0
			C62.8,59.3,60.8,57.8,59.1,56.1z"/>
	</g>
</g>
<g>
	<g>
		<path class="st10" d="M94.3,62.1c-1.7,0-3.1-0.2-4.3-0.5c-1.2-0.4-2.2-1-3-1.8c-0.8-0.8-1.4-2-1.8-3.4c-0.4-1.5-0.6-3.3-0.6-5.5
			c0-2.3,0.2-4.2,0.6-5.7c0.4-1.5,1-2.6,1.8-3.4c0.8-0.8,1.8-1.4,3-1.7c1.2-0.3,2.7-0.5,4.3-0.5s3.1,0.2,4.3,0.5
			c1.2,0.3,2.3,0.9,3,1.7c0.8,0.8,1.4,2,1.8,3.4c0.4,1.5,0.6,3.3,0.6,5.6c0,2.3-0.2,4.1-0.6,5.6c-0.4,1.5-1,2.6-1.8,3.4
			c-0.8,0.8-1.8,1.4-3,1.8C97.4,61.9,96,62.1,94.3,62.1z M94.3,58.7c0.9,0,1.7-0.1,2.4-0.2s1.3-0.5,1.8-1c0.5-0.5,0.8-1.3,1.1-2.4
			s0.4-2.5,0.4-4.2c0-1.8-0.1-3.2-0.4-4.2c-0.2-1.1-0.6-1.8-1.1-2.4c-0.5-0.5-1-0.9-1.8-1c-0.7-0.2-1.5-0.3-2.4-0.3
			c-0.9,0-1.8,0.1-2.4,0.3c-0.7,0.2-1.3,0.5-1.7,1c-0.5,0.5-0.8,1.3-1,2.4c-0.2,1.1-0.4,2.5-0.4,4.2c0,1.8,0.1,3.2,0.4,4.2
			c0.2,1.1,0.6,1.9,1,2.4c0.5,0.5,1,0.9,1.7,1C92.5,58.6,93.4,58.7,94.3,58.7z"/>
		<path class="st10" d="M107.6,36.1c-0.5,0-0.7-0.2-0.7-0.7v-3.5c0-0.5,0.2-0.7,0.7-0.7h3c0.2,0,0.4,0.1,0.5,0.2
			c0.1,0.1,0.2,0.3,0.2,0.5v3.5c0,0.5-0.2,0.7-0.7,0.7H107.6z M107,61.8v-22h4.1v22H107z"/>
		<path class="st10" d="M114.8,61.8v-22h3.3l0.8,2.4c1-0.7,2.2-1.4,3.5-1.9c1.4-0.6,2.8-0.8,4.2-0.8c1.6,0,3,0.3,4,1
			c1,0.7,1.7,1.6,2.2,2.8s0.7,2.4,0.7,3.7v14.8h-4.1V47.5c0-0.9-0.2-1.6-0.5-2.3c-0.3-0.6-0.8-1.1-1.4-1.5c-0.6-0.4-1.3-0.5-2.2-0.5
			c-0.8,0-1.6,0.1-2.3,0.2c-0.7,0.2-1.4,0.4-2,0.7c-0.6,0.3-1.3,0.6-2,1v16.7H114.8z"/>
		<path class="st10" d="M146.1,62c-1.9,0-3.5-0.3-4.8-0.9s-2.2-1.6-2.9-2.9c-0.7-1.3-1.2-2.9-1.5-4.8c-0.3-1.9-0.4-4.2-0.4-6.7
			c0-2.5,0.2-4.7,0.5-6.7c0.3-1.9,0.9-3.5,1.6-4.8c0.8-1.3,1.8-2.3,3.2-2.9c1.4-0.6,3.1-1,5.2-1c1.2,0,2.3,0,3.5,0.1
			c1.2,0.1,2.3,0.2,3.4,0.4c1.1,0.2,2.1,0.4,3.1,0.6v3.2c-0.5-0.1-1.3-0.2-2.3-0.2c-1-0.1-2.1-0.2-3.3-0.2c-1.2-0.1-2.4-0.1-3.6-0.1
			c-1.9,0-3.4,0.4-4.4,1.1c-1,0.8-1.7,2-2.1,3.7c-0.4,1.7-0.6,4-0.6,6.9c0,2.3,0.1,4.2,0.3,5.7c0.2,1.5,0.6,2.7,1.1,3.5
			c0.5,0.9,1.2,1.5,2,1.9c0.9,0.4,2,0.6,3.3,0.6c1.3,0,2.5-0.2,3.8-0.5c1.2-0.3,2.3-0.6,3.2-0.9v-8h-6.8v-3.2c0.5-0.1,1.2-0.2,2-0.2
			c0.8-0.1,1.6-0.1,2.4-0.1c0.8,0,1.7-0.1,2.5-0.1c0.8,0,1.5,0,2.1,0c0.6,0,1.2,0.1,1.8,0.1v16.4h-3.1l-0.6-2.1
			c-0.9,0.5-2.1,1-3.6,1.5S147.8,62,146.1,62z"/>
		<path class="st10" d="M162,61.8v-22h3.2l0.9,3.7c0.9-1.1,2-2.1,3.1-2.8c1.2-0.8,2.5-1.2,4-1.2c0.4,0,0.7,0,1,0.1
			c0.3,0,0.6,0.1,0.9,0.2V44c-0.4-0.1-0.8-0.1-1.2-0.1c-0.4,0-0.8-0.1-1.3-0.1c-0.9,0-1.8,0.1-2.5,0.3s-1.4,0.6-2.1,1
			c-0.7,0.5-1.4,1-2,1.7v15H162z"/>
		<path class="st10" d="M181.5,62.1c-1.6,0-3-0.5-4-1.5c-1.1-1-1.6-2.3-1.6-4.1v-1.7c0-1.7,0.6-3.1,1.8-4.2c1.2-1.1,2.9-1.6,5.3-1.6
			h6.9v-2.3c0-0.9-0.1-1.6-0.4-2.2c-0.3-0.6-0.8-1-1.6-1.3c-0.8-0.3-1.9-0.5-3.4-0.5h-6.8v-2.4c1-0.2,2.1-0.4,3.5-0.6
			c1.3-0.2,2.9-0.3,4.7-0.3c1.8,0,3.3,0.2,4.5,0.7c1.2,0.5,2.1,1.2,2.7,2.2c0.6,1,0.9,2.4,0.9,4.1v15.4h-3.3l-0.7-2.4
			c-0.2,0.1-0.5,0.3-1,0.6c-0.5,0.3-1.2,0.6-2,0.9c-0.8,0.3-1.7,0.6-2.6,0.8C183.4,62,182.5,62.1,181.5,62.1z M183.4,59.1
			c0.4,0,0.9,0,1.5-0.1s1.1-0.2,1.7-0.4c0.6-0.2,1.1-0.3,1.6-0.5c0.5-0.2,0.9-0.3,1.2-0.4c0.3-0.1,0.5-0.2,0.5-0.2v-6.3l-5.8,0.2
			c-1.4,0.1-2.5,0.4-3.1,1.1c-0.6,0.6-0.9,1.5-0.9,2.5v1c0,0.8,0.2,1.4,0.5,1.9c0.3,0.5,0.7,0.8,1.3,1
			C182.3,59,182.9,59.1,183.4,59.1z"/>
		<path class="st10" d="M197.5,71.6V39.8h3.4l0.7,2.2c0.5-0.4,1.1-0.8,1.9-1.2c0.7-0.4,1.5-0.7,2.4-1c0.9-0.3,1.7-0.4,2.6-0.4
			c1.4,0,2.6,0.3,3.6,0.9c1,0.6,1.8,1.4,2.5,2.4c0.6,1,1.1,2.2,1.4,3.6c0.3,1.4,0.4,2.8,0.4,4.4c0,2.4-0.3,4.5-0.8,6.2
			s-1.4,3-2.5,3.8c-1.1,0.9-2.7,1.3-4.5,1.3c-1.2,0-2.3-0.2-3.5-0.5c-1.2-0.3-2.3-0.8-3.3-1.4v11.4H197.5z M207.3,58.7
			c0.9,0,1.8-0.2,2.5-0.7s1.3-1.3,1.8-2.4c0.5-1.1,0.7-2.7,0.7-4.8c0-1.9-0.2-3.5-0.7-4.6c-0.5-1.2-1.1-2-1.8-2.5
			c-0.7-0.5-1.6-0.8-2.4-0.8c-1.2,0-2.2,0.2-3.1,0.5c-0.9,0.4-1.8,0.7-2.5,1.1v12.6c0.9,0.5,1.8,0.8,2.7,1.1
			C205.4,58.5,206.3,58.7,207.3,58.7z"/>
	</g>
</g>
</svg>
